<svg fill="{{ .fill }}" width="{{ .width }}" height="{{ .height }}" viewBox="0 0 72 72" xmlns="http://www.w3.org/2000/svg" preserveAspectRatio="xMinYMin">
<g id="Page-1" stroke="none" stroke-width="1" fill="none" fill-rule="evenodd">
<g id="Social-Icons---Rounded-Black" transform="translate(-264.000000, -939.000000)">
<g id="email" transform="translate(264.000000, 939.000000)">
<path d="M8,72 L64,72 C68.418278,72 72,68.418278 72,64 L72,8 C72,3.581722 68.418278,-8.11624501e-16 64,0 L8,0 C3.581722,8.11624501e-16 -5.41083001e-16,3.581722 0,8 L0,64 C5.41083001e-16,68.418278 3.581722,72 8,72 Z" id="Rounded" fill="{{ .fill }}"></path>
<g transform="translate(0,0) scale(3)">
<path d="M2 6a2 2 0 0 1 2-2h16a2 2 0 0 1 2 2v12a2 2 0 0 1-2 2H4a2 2 0 0 1-2-2V6zm3.519 0L12 11.671 18.481 6H5.52zM20 7.329l-7.341 6.424a1 1 0 0 1-1.318 0L4 7.329V18h16V7.329z" fill="{{ .innerfill }}"/>
		</g>
            </g>
        </g>
    </g>
</svg>

