<svg fill="{{ .fill }}" width="{{ .width }}" height="{{ .height }}" viewBox="0 0 72 72" xmlns="http://www.w3.org/2000/svg" preserveAspectRatio="xMinYMin" class="jam jam-spotify">
<g id="Page-1" stroke="none" stroke-width="1" fill="none" fill-rule="evenodd">
<g id="Social-Icons---Rounded-Black" transform="translate(-264.000000, -939.000000)">
<g id="Spotify" transform="translate(264.000000, 939.000000)">
<path d="M8,72 L64,72 C68.418278,72 72,68.418278 72,64 L72,8 C72,3.581722 68.418278,-8.11624501e-16 64,0 L8,0 C3.581722,8.11624501e-16 -5.41083001e-16,3.581722 0,8 L0,64 C5.41083001e-16,68.418278 3.581722,72 8,72 Z" id="Rounded" fill="{{ .fill }}"></path>
<g transform="translate(8, 8) scale(0.95)">
<path d="M29.976 0C13.422 0 0 13.422 0 29.976s13.422 29.976 29.976 29.976 29.976 -13.422 29.976 -29.976S46.53 0 29.976 0m13.044 47.047c-0.383 0.989 -1.063 1.536 -1.77 1.536a1.56 1.56 0 0 1 -1.032 -0.422c-5.388 -4.764 -11.61 -5.527 -15.882 -5.334 -4.734 0.217 -8.207 1.632 -8.239 1.648 -1.087 0.45 -2.22 -0.522 -2.516 -2.172 -0.3 -1.65 0.342 -3.358 1.432 -3.81 0.156 -0.066 3.893 -1.602 9.085 -1.86a27 27 0 0 1 8.75 0.96 24.3 24.3 0 0 1 9.438 5.213c0.978 0.865 1.308 2.766 0.734 4.247m3.81 -9.191c-0.45 0.989 -1.26 1.536 -2.095 1.536a2.04 2.04 0 0 1 -1.22 -0.422c-6.38 -4.764 -13.752 -5.527 -18.812 -5.334 -5.61 0.217 -9.72 1.632 -9.761 1.648 -1.292 0.45 -2.628 -0.522 -2.984 -2.172s0.407 -3.358 1.698 -3.81c0.181 -0.066 4.608 -1.602 10.762 -1.86 3.624 -0.152 7.11 0.173 10.368 0.96a30.6 30.6 0 0 1 11.178 5.213c1.158 0.864 1.548 2.766 0.87 4.247m2.346 -8.988a2.85 2.85 0 0 1 -1.5 -0.426c-15.174 -9.24 -34.852 -3.75 -35.05 -3.696 -1.584 0.458 -3.224 -0.51 -3.66 -2.162s0.494 -3.36 2.078 -3.816c0.228 -0.066 5.656 -1.602 13.2 -1.86a55.95 55.95 0 0 1 12.72 0.96c5.058 1.001 9.671 2.752 13.71 5.214 1.422 0.864 1.9 2.761 1.069 4.242a2.985 2.985 0 0 1 -2.574 1.54" fill="#FFFFFF">/>
		</g>
            </g>
        </g>
    </g>
</svg>